HIERARCHY
ROOT root
{
	OFFSET 0.000000 0.000000 0.000000
	CHANNELS 6 Xposition Yposition Zposition Zrotation Yrotation Xrotation
	JOINT lhip
	{
		OFFSET 0.058581 -0.082280 -0.017664
		CHANNELS 3 Zrotation Yrotation Xrotation
		JOINT lknee
		{
			OFFSET 0.043451 -0.386469 0.008037
			CHANNELS 3 Zrotation Yrotation Xrotation
			JOINT lankle
			{
				OFFSET -0.014790 -0.426874 -0.037428
				CHANNELS 3 Zrotation Yrotation Xrotation
				JOINT ltoe
				{
					OFFSET 0.041054 -0.060286 0.122042
					CHANNELS 3 Zrotation Yrotation Xrotation
					End Site
					{
						OFFSET 0.000000 0.000000 0.000000
					}
				}
			}
		}
	}
	JOINT rhip
	{
		OFFSET -0.060310 -0.090513 -0.013543
		CHANNELS 3 Zrotation Yrotation Xrotation
		JOINT rknee
		{
			OFFSET -0.043257 -0.383688 -0.004843
			CHANNELS 3 Zrotation Yrotation Xrotation
			JOINT rankle
			{
				OFFSET 0.019056 -0.420046 -0.034562
				CHANNELS 3 Zrotation Yrotation Xrotation
				JOINT rtoe
				{
					OFFSET -0.034840 -0.062106 0.130323
					CHANNELS 3 Zrotation Yrotation Xrotation
					End Site
					{
						OFFSET 0.000000 0.000000 0.000000
					}
				}
			}
		}
	}
	JOINT lowerback
	{
		OFFSET 0.004439 0.124404 -0.038385
		CHANNELS 3 Zrotation Yrotation Xrotation
		JOINT upperback
		{
			OFFSET 0.004488 0.137956 0.026820
			CHANNELS 3 Zrotation Yrotation Xrotation
			JOINT chest
			{
				OFFSET -0.002265 0.056032 0.002855
				CHANNELS 3 Zrotation Yrotation Xrotation
				JOINT lowerneck
				{
					OFFSET -0.013390 0.211636 -0.033468
					CHANNELS 3 Zrotation Yrotation Xrotation
					JOINT upperneck
					{
						OFFSET 0.010113 0.088937 0.050410
						CHANNELS 3 Zrotation Yrotation Xrotation
						End Site
						{
							OFFSET 0.000000 0.000000 0.000000
						}
					}
				}
				JOINT lclavicle
				{
					OFFSET 0.071702 0.114000 -0.018898
					CHANNELS 3 Zrotation Yrotation Xrotation
					JOINT lshoulder
					{
						OFFSET 0.122921 0.045205 -0.019046
						CHANNELS 3 Zrotation Yrotation Xrotation
						JOINT lelbow
						{
							OFFSET 0.255332 -0.015649 -0.022946
							CHANNELS 3 Zrotation Yrotation Xrotation
							JOINT lwrist
							{
								OFFSET 0.265709 0.012698 -0.007375
								CHANNELS 3 Zrotation Yrotation Xrotation
								End Site
								{
									OFFSET 0.000000 0.000000 0.000000
								}
							}
						}
					}
				}
				JOINT rclavicle
				{
					OFFSET -0.082954 0.112472 -0.023707
					CHANNELS 3 Zrotation Yrotation Xrotation
					JOINT rshoulder
					{
						OFFSET -0.113228 0.046853 -0.008472
						CHANNELS 3 Zrotation Yrotation Xrotation
						JOINT relbow
						{
							OFFSET -0.260127 -0.014369 -0.031269
							CHANNELS 3 Zrotation Yrotation Xrotation
							JOINT rwrist
							{
								OFFSET -0.269108 0.006794 -0.006027
								CHANNELS 3 Zrotation Yrotation Xrotation
								End Site
								{
									OFFSET 0.000000 0.000000 0.000000
								}
							}
						}
					}
				}
			}
		}
	}
}
MOTION
Frames: 17
Frame Time: 0.033333
0.508393 0.674426 0.535414 -34.948267 -2.672905 70.149101 12.828141 -8.666365 -43.858889 -3.575006 10.264091 134.255172 -13.826187 9.672509 -41.437123 0.000000 -0.000000 0.000000 -33.033433 -6.901643 -61.546091 6.267850 6.547885 107.135664 18.280142 6.704552 -26.378357 0.000000 -0.000000 0.000000 5.740279 -2.099374 54.863936 5.064050 5.751803 -10.275385 5.519883 4.396822 0.667795 -9.440766 5.100378 -19.340566 -1.557486 0.821749 -18.217472 1.416684 -7.364257 -18.709934 -6.017045 -6.585314 -20.535796 137.795124 -49.012955 -110.987631 15.898729 -23.220750 6.288761 14.692420 20.596788 -8.770566 32.724193 7.472887 -9.748706 -30.006903 30.246381 -48.527080 4.004646 11.753803 -21.157621 
0.508151 0.674571 0.534288 -34.996800 -2.964813 69.720564 12.054653 -8.000985 -43.492376 -3.717238 9.624350 134.407967 -14.081119 9.836626 -41.290113 0.000000 -0.000000 0.000000 -33.155488 -6.800435 -61.424272 6.239777 6.968614 107.333303 18.470661 7.160090 -26.396907 0.000000 -0.000000 0.000000 5.820727 -1.814196 55.588455 5.042612 5.632015 -10.437799 5.611723 4.216709 0.545162 -9.751253 5.450492 -19.515947 -1.797568 0.475181 -18.409518 1.776569 -7.566817 -19.242919 -5.995795 -6.108358 -20.560990 137.401761 -49.227927 -110.626303 16.673365 -23.556449 5.816710 14.438631 20.914667 -8.790339 32.632634 7.308991 -10.157821 -30.430225 30.856194 -48.763016 4.170250 12.131095 -22.574321 
0.508010 0.674626 0.532597 -34.845344 -3.064436 69.580541 12.041484 -8.005612 -43.577800 -3.751685 9.582214 134.621919 -14.192921 9.641299 -41.201006 0.000000 -0.000000 0.000000 -33.328163 -6.930375 -61.483903 6.256289 7.095533 107.593139 18.594844 7.357567 -26.371313 0.000000 -0.000000 0.000000 5.951736 -1.807173 55.790790 5.082239 5.555997 -10.418302 5.686973 4.220378 0.428589 -9.987268 5.471869 -19.503633 -1.676635 0.482360 -18.916848 2.154740 -7.664800 -19.579525 -5.965281 -5.842733 -20.545454 136.858772 -49.331701 -110.291993 17.108310 -23.766263 5.511077 14.196328 21.009617 -8.900940 32.448485 7.197907 -10.393987 -30.784930 31.428586 -49.334602 3.814104 12.529518 -23.272277 
0.507225 0.675360 0.530019 -34.673927 -3.163894 69.460790 12.162185 -8.087517 -43.837746 -3.883362 9.624113 135.006999 -14.278004 9.516882 -41.154571 0.000000 -0.000000 0.000000 -33.472334 -7.028963 -61.723829 6.441084 7.154473 108.021019 18.623154 7.263264 -26.427028 0.000000 -0.000000 0.000000 6.009601 -1.655464 56.037606 5.235350 5.642240 -10.507974 5.936488 4.267899 0.369534 -9.925104 5.442550 -19.490551 -1.984378 0.769646 -19.279601 2.342240 -8.002478 -19.838272 -5.452112 -5.821589 -20.661774 135.702237 -49.485206 -109.881763 18.198249 -23.955302 4.848087 13.924428 21.248206 -8.923077 31.692837 7.001144 -10.669038 -31.428371 32.032113 -50.620280 1.860516 13.217148 -23.945900 
0.506934 0.675577 0.529304 -34.614895 -3.195829 69.463609 12.150156 -8.086191 -43.914717 -3.922378 9.602740 135.099345 -14.287289 9.536391 -41.155773 0.000000 -0.000000 0.000000 -33.538115 -7.095732 -61.826517 6.470606 7.127541 108.154989 18.615046 7.253476 -26.452341 0.000000 -0.000000 0.000000 6.059081 -1.684758 56.113891 5.251457 5.645359 -10.564518 5.935489 4.299310 0.368845 -9.967648 5.449147 -19.686720 -1.994730 0.696257 -19.333862 2.497797 -8.047304 -19.890817 -5.331864 -5.757929 -20.667427 135.371481 -49.483496 -109.877783 18.775284 -23.991433 4.625736 13.930475 21.338043 -8.953278 31.473250 7.070487 -10.793439 -31.792340 32.181682 -51.259435 1.055016 13.216015 -24.019730 
0.506370 0.676009 0.528339 -34.557382 -3.337574 69.528869 12.068187 -8.118341 -44.059302 -4.032266 9.640743 135.185955 -14.274587 9.638221 -41.180129 0.000000 -0.000000 0.000000 -33.631141 -7.266539 -62.077065 6.652114 7.112072 108.356673 18.647465 7.212288 -26.420480 0.000000 -0.000000 0.000000 6.178713 -1.626276 56.273313 5.242718 5.687393 -10.586659 5.974411 4.332043 0.217443 -10.031708 5.387019 -20.020434 -1.966637 0.772706 -19.524204 2.782510 -8.165238 -19.965393 -5.079311 -5.235009 -20.650668 134.859455 -49.348314 -109.832941 19.273033 -23.805601 4.529907 13.762672 21.535002 -9.070329 31.133666 6.918937 -11.003644 -32.425923 32.637473 -51.904459 1.525776 13.494836 -24.457384 
0.505119 0.676308 0.527514 -34.547976 -3.373086 69.646574 12.265164 -8.078330 -44.124509 -4.142345 9.617395 135.202381 -14.247104 9.481669 -41.240941 0.000000 -0.000000 0.000000 -33.763249 -7.524442 -62.363871 6.757731 6.869431 108.584799 18.672422 7.396933 -26.329181 0.000000 -0.000000 0.000000 6.320879 -1.574905 56.186409 5.320277 5.750528 -10.439716 6.019797 4.390410 0.186340 -10.440979 5.422576 -20.533555 -1.828031 0.743573 -19.884211 3.147105 -8.171029 -20.275370 -5.235158 -5.251892 -20.764876 134.333120 -49.328213 -109.352155 19.702467 -23.749112 3.986934 13.645960 21.676195 -9.076562 30.848805 7.143245 -11.388021 -33.319581 32.918340 -52.475044 1.757761 13.821891 -24.913437 
0.503952 0.676747 0.528025 -34.492070 -3.444305 69.690010 12.300853 -8.042948 -44.035660 -4.205310 9.518667 134.997697 -14.235587 9.408584 -41.314922 0.000000 -0.000000 0.000000 -33.798126 -7.686129 -62.367032 6.764377 6.797906 108.602413 18.722618 7.469229 -26.268824 0.000000 -0.000000 0.000000 6.443286 -1.609264 56.324369 5.319345 5.855818 -10.557175 6.112585 4.458837 0.104815 -10.470484 5.356979 -20.554770 -1.837035 0.799287 -20.017680 3.355228 -8.319501 -20.334090 -5.147291 -5.070825 -20.778713 133.945845 -49.408469 -109.450056 20.392998 -23.909132 3.774904 13.274198 21.827048 -9.225120 30.740330 7.199568 -11.513294 -33.929191 33.253058 -53.622539 0.449820 13.865629 -25.633454 
0.502730 0.676985 0.529660 -34.540259 -3.629147 69.702102 12.082740 -7.922047 -43.782307 -4.214391 9.314934 134.647763 -14.296899 9.445457 -41.199049 0.000000 -0.000000 0.000000 -33.735164 -7.739217 -62.300528 6.807254 6.885604 108.524341 18.583110 7.331617 -26.323521 0.000000 -0.000000 0.000000 6.516066 -1.687788 56.508919 5.243109 5.900686 -10.668971 6.175956 4.512197 0.091091 -10.581040 5.274928 -20.664439 -1.778420 0.953083 -19.981811 3.565232 -8.407325 -20.447344 -5.075523 -4.707387 -20.783474 133.835674 -49.311037 -109.556335 20.428355 -23.796199 3.765725 12.845032 22.116881 -9.492650 30.601295 7.307569 -11.675674 -34.278580 33.325460 -54.413393 0.645620 13.587563 -26.053643 
0.501307 0.677153 0.532280 -34.591547 -3.808161 69.812559 11.908863 -7.906092 -43.512093 -4.260872 9.158906 134.130495 -14.327756 9.351323 -41.036532 0.000000 -0.000000 0.000000 -33.736041 -7.842350 -62.187526 6.801926 6.850224 108.326075 18.326499 7.204191 -26.433205 0.000000 -0.000000 0.000000 6.615027 -1.727965 56.494996 5.196859 5.950335 -10.687937 6.248499 4.584881 0.001418 -10.679920 5.090915 -20.661399 -1.716550 0.910975 -20.006046 3.607194 -8.419534 -20.469311 -4.982738 -4.496286 -20.625453 133.978065 -49.096920 -110.089560 20.366848 -23.754084 3.510083 12.617207 22.326105 -9.623986 30.308907 7.379219 -11.755469 -34.582541 33.412972 -54.958518 0.647680 13.639666 -25.722010 
0.500076 0.677535 0.536047 -34.715962 -4.015793 70.141706 11.689582 -7.874166 -43.335069 -4.342311 9.029063 133.388197 -14.380960 9.271847 -40.928728 0.000000 -0.000000 0.000000 -33.499684 -7.672339 -62.092865 6.705354 6.954608 107.885853 18.237902 6.985540 -26.648624 0.000000 -0.000000 0.000000 6.674008 -1.756236 56.398680 5.167364 5.945386 -10.824399 6.230655 4.635853 -0.104134 -10.748731 5.092792 -20.667259 -1.744176 0.989323 -20.047294 3.865262 -8.271762 -20.422020 -5.022117 -4.377379 -20.692057 134.117165 -49.046543 -110.181471 20.827085 -23.804361 2.968090 12.543210 22.499915 -9.600658 29.938595 7.701237 -11.861087 -34.635618 33.530236 -55.060800 0.049443 13.935523 -26.300521 
0.498627 0.677717 0.540922 -34.838798 -4.189639 70.488971 11.300626 -7.777693 -42.971387 -4.388287 8.764254 132.447105 -14.428974 9.389540 -40.984558 0.000000 -0.000000 0.000000 -33.238672 -7.388772 -61.814481 6.437648 7.034804 107.290789 18.068265 6.633581 -26.859794 0.000000 -0.000000 0.000000 6.785317 -1.807595 56.160687 5.114987 5.993907 -10.942411 6.286520 4.701750 0.034468 -10.775552 5.170330 -20.783885 -1.888240 1.176757 -20.022057 4.005338 -8.215205 -20.627067 -5.009452 -4.522348 -20.747364 134.089701 -49.051803 -110.082657 21.121503 -23.706574 2.996647 12.274152 22.587166 -9.858315 29.720723 8.167065 -12.023830 -34.612145 33.326199 -55.151530 -0.989607 13.714218 -26.141585 
0.497125 0.677969 0.547518 -35.028121 -4.380657 70.793602 10.754398 -7.642778 -42.176741 -4.239014 8.367915 131.123019 -14.430770 9.682535 -41.278982 0.000000 -0.000000 0.000000 -32.916621 -7.452394 -61.520328 6.305856 6.976497 106.627316 18.325057 6.832806 -26.590912 0.000000 -0.000000 0.000000 6.812543 -1.855508 55.984857 5.120163 6.115950 -10.838096 6.328122 4.818595 -0.120764 -10.868637 5.203692 -20.807216 -2.011786 1.164288 -20.214647 4.256614 -8.216849 -20.678429 -5.185141 -4.529584 -20.696819 133.971693 -48.810063 -109.888183 20.697224 -24.017228 3.083194 12.160697 22.746891 -9.987162 29.481450 8.399530 -12.384407 -34.584887 33.151660 -54.987980 0.386751 14.014139 -25.712862 
0.495972 0.678065 0.555176 -35.180793 -4.715621 71.291093 10.008450 -7.482216 -41.558154 -4.119515 8.040287 129.593582 -14.265576 9.965122 -41.524309 0.000000 -0.000000 0.000000 -32.664689 -7.399026 -61.170961 6.163208 7.108868 105.663988 18.258904 6.582268 -26.602007 0.000000 -0.000000 0.000000 6.792505 -1.812052 55.753085 5.024859 6.182009 -11.059315 6.434836 4.855083 -0.109407 -10.834796 5.203925 -20.932960 -2.144268 1.461850 -20.449415 4.420496 -8.126181 -20.677683 -4.992442 -4.427104 -20.685429 133.983702 -48.886018 -110.302282 21.260101 -24.013559 3.231015 11.930745 22.903050 -10.146850 29.214396 8.540603 -12.420934 -34.492029 32.916304 -55.590038 -0.344828 13.818835 -25.551607 
0.494779 0.677975 0.563953 -35.372258 -4.994788 71.737799 9.301062 -7.353634 -40.793468 -4.144059 7.722273 127.838884 -14.142650 10.319280 -41.592033 0.000000 -0.000000 0.000000 -32.432510 -7.355816 -60.568340 6.024189 7.144556 104.430097 18.225652 6.396303 -26.702260 0.000000 -0.000000 0.000000 6.856296 -1.857225 55.598564 4.915253 6.259616 -11.211800 6.485776 5.037602 0.257486 -10.785912 5.301058 -22.214899 -2.236626 1.021461 -19.867131 4.649188 -7.783299 -21.172183 -4.989126 -4.847989 -20.612726 133.636538 -49.061672 -110.146203 21.565542 -24.108199 2.801988 11.506127 22.653870 -10.776184 29.323147 9.006437 -12.349328 -34.499031 32.758651 -55.549139 -0.287189 13.838892 -25.452676 
0.493305 0.677604 0.574295 -35.586975 -5.162154 72.225189 8.557602 -6.992846 -39.783303 -4.131660 7.120704 125.864416 -14.139980 10.479711 -41.771763 0.000000 -0.000000 0.000000 -31.945871 -7.398169 -59.828277 5.760606 7.260816 103.103298 18.286351 6.417614 -26.758331 0.000000 -0.000000 0.000000 7.138438 -1.884396 55.279742 4.826676 6.342713 -11.250150 6.572494 5.150881 0.256736 -10.811464 5.300761 -22.320735 -2.270046 1.080856 -20.081891 4.791121 -7.902059 -21.218122 -4.978904 -4.810312 -20.530212 133.223083 -49.124688 -109.883787 21.698187 -24.119600 2.971188 11.290083 22.768422 -10.883975 28.998553 8.925094 -12.654369 -34.374717 32.832622 -55.835966 -0.484846 13.710741 -25.344917 
0.492137 0.676982 0.585502 -35.719133 -5.383227 72.890590 7.803495 -6.860432 -39.013555 -4.011293 6.749972 123.769528 -14.052785 10.811897 -41.738564 0.000000 -0.000000 0.000000 -31.660182 -7.428715 -59.087132 5.420513 7.205837 101.569782 18.197993 6.219998 -26.737350 0.000000 -0.000000 0.000000 7.338486 -1.875894 54.783195 4.863191 6.315061 -11.426195 6.600027 5.260756 -0.217677 -10.556904 5.096528 -21.175533 -2.216273 1.332917 -20.518950 5.075054 -8.142998 -20.621846 -5.113741 -4.639160 -20.561813 132.908448 -49.194375 -109.591970 21.544457 -24.156575 2.913409 11.360069 23.141186 -10.323526 28.656021 8.724847 -13.069638 -34.205053 32.499019 -55.841851 -0.059948 13.831757 -25.355055 
